<?xml version="1.0" encoding="UTF-8"?>
<svg version="1.1" xmlns="http://www.w3.org/2000/svg" width="512" height="512">
<path d="M0 0 C168.96 0 337.92 0 512 0 C512 168.96 512 337.92 512 512 C343.04 512 174.08 512 0 512 C0 343.04 0 174.08 0 0 Z " fill="#1F9BED" transform="translate(0,0)"/>
<path d="M0 0 C1.25831224 -0.00679667 1.25831224 -0.00679667 2.54204494 -0.01373065 C5.33373586 -0.02632136 8.12523036 -0.02475773 10.91694641 -0.02310181 C12.92656707 -0.02909045 14.93618542 -0.03589677 16.94580078 -0.04345703 C22.39231957 -0.06109162 27.83877547 -0.06581139 33.28532004 -0.0670886 C36.69261878 -0.06851239 40.09990164 -0.07278633 43.50719643 -0.07808304 C55.40713639 -0.09657608 67.30703161 -0.1047547 79.20698547 -0.10317993 C90.2780209 -0.10197927 101.34886114 -0.12306881 112.41984719 -0.15466726 C121.94201052 -0.18087105 131.46411027 -0.19154548 140.98630935 -0.19026911 C146.66579513 -0.18976062 152.34510743 -0.1953814 158.02455711 -0.21662521 C163.3705251 -0.2360763 168.71615537 -0.23608514 174.0621357 -0.22159195 C176.01594413 -0.21951115 177.96977409 -0.22416088 179.92354584 -0.23631287 C197.72374408 -0.33978904 212.03788698 2.32222091 225.55488586 14.89242554 C230.52355109 20.06421229 233.62857325 25.64897676 236.30488586 32.26742554 C236.8282166 33.52493842 236.8282166 33.52493842 237.36211967 34.80785561 C238.61967639 39.4225792 238.57443212 43.71857231 238.5453949 48.47991943 C238.54795817 50.01894139 238.54795817 50.01894139 238.55057323 51.5890547 C238.5538662 55.02537317 238.54286743 58.46149617 238.53193665 61.89779663 C238.53137249 64.36170446 238.53168917 66.82561263 238.53282166 69.28952026 C238.53327702 74.59330125 238.52760595 79.89702145 238.51634598 85.20078659 C238.50007668 92.86908587 238.49488151 100.53736137 238.49236999 108.20567603 C238.48799513 120.64765942 238.4746917 133.08961656 238.45576477 145.53158569 C238.43740056 157.61621978 238.4232467 169.70084672 238.41474915 181.78549194 C238.4142237 182.5306645 238.41369825 183.27583705 238.41315688 184.04359059 C238.41054677 187.78198455 238.40801936 191.52037857 238.40553308 195.25877261 C238.38480708 226.26167661 238.34903596 257.26454564 238.30488586 288.26742554 C227.74488586 288.26742554 217.18488586 288.26742554 206.30488586 288.26742554 C206.30488586 253.61742554 206.30488586 218.96742554 206.30488586 183.26742554 C132.71488586 183.26742554 59.12488586 183.26742554 -16.69511414 183.26742554 C-16.69511414 217.91742554 -16.69511414 252.56742554 -16.69511414 288.26742554 C-27.58511414 288.26742554 -38.47511414 288.26742554 -49.69511414 288.26742554 C-49.78564629 257.02238579 -49.85721006 225.77739345 -49.89937545 194.53225406 C-49.90437794 190.83875306 -49.90955526 187.14525232 -49.9148407 183.45175171 C-49.91588994 182.7164799 -49.91693918 181.98120808 -49.91802022 181.22365531 C-49.93539869 169.33722094 -49.96692217 157.4508644 -50.00372532 145.56447611 C-50.04120614 133.35689423 -50.06336504 121.14935295 -50.07146811 108.9417159 C-50.07694114 101.41630323 -50.09419147 93.8911106 -50.12678 86.36576571 C-50.15053612 80.58347106 -50.15291603 74.80131563 -50.14754486 69.01898193 C-50.14864119 66.65558205 -50.15654266 64.29217348 -50.17193604 61.92882347 C-50.283918 43.84210834 -49.24707419 28.84349264 -36.44120789 14.79476929 C-26.1846364 4.93331452 -14.13510948 -0.05690318 0 0 Z " fill="#000101" transform="translate(205.6951141357422,111.73257446289063)"/>
<path d="M0 0 C0.82577073 -0.00623996 1.65154146 -0.01247993 2.50233555 -0.01890898 C5.26153417 -0.03482778 8.019848 -0.02223926 10.77905273 -0.00964355 C12.76033035 -0.01506517 14.74160393 -0.02218805 16.72286987 -0.03088379 C22.09887964 -0.0491153 27.47458226 -0.04205022 32.85059738 -0.02936745 C38.47722958 -0.01923896 44.10383552 -0.02863271 49.73046875 -0.03491211 C59.17932862 -0.04218894 68.62806342 -0.03259982 78.0769043 -0.0135498 C89.00036803 0.00821894 99.92353313 0.0011676 110.84698963 -0.02085543 C120.22634595 -0.03900835 129.60561237 -0.04156825 138.98498058 -0.03110075 C144.58656395 -0.02486526 150.18800695 -0.02403181 155.7895813 -0.0372467 C161.05591941 -0.04880293 166.32187256 -0.04078336 171.5881691 -0.01766968 C173.5207162 -0.01238141 175.45329572 -0.01389837 177.38582993 -0.02272034 C180.02442137 -0.03365476 182.66178003 -0.01993801 185.30029297 0 C186.06469476 -0.00892289 186.82909655 -0.01784577 187.61666203 -0.02703905 C192.77196165 0.04849892 195.67086984 1.27264668 199.65014648 4.50793457 C224.79345599 33.0489886 204.65014648 80.47140242 204.65014648 118.50793457 C131.06014648 118.50793457 57.47014648 118.50793457 -18.34985352 118.50793457 C-18.34985352 10.50793457 -18.34985352 10.50793457 -14.34985352 4.50793457 C-9.74056321 0.54891432 -5.89030106 -0.06875768 0 0 Z " fill="#1F9BED" transform="translate(207.349853515625,144.4920654296875)"/>
<path d="M0 0 C10.89 0 21.78 0 33 0 C33 95.04 33 190.08 33 288 C22.11 288 11.22 288 0 288 C0 192.96 0 97.92 0 0 Z " fill="#000102" transform="translate(68,112)"/>
</svg>
